<svg width="24" height="24" viewBox="0 0 24 24" fill="none" xmlns="http://www.w3.org/2000/svg">
    <path d="M15.5555 6.42259C16.1136 5.86443 17.0186 5.86443 17.5767 6.42259C18.0842 6.93 18.1303 7.72402 17.7151 8.28355L17.5767 8.44385L8.44477 17.5758C7.88661 18.134 6.98166 18.134 6.4235 17.5758C5.91609 17.0684 5.86996 16.2744 6.28511 15.7149L6.4235 15.5546L15.5555 6.42259Z" fill="var(--close-icon-color)"/>
    <path d="M6.41872 6.41851C6.92619 5.91115 7.72022 5.8651 8.2797 6.28032L8.43999 6.41872L17.5796 15.5602C18.1377 16.1184 18.1376 17.0234 17.5794 17.5815C17.0719 18.0889 16.2779 18.1349 15.7184 17.7197L15.5581 17.5813L6.41851 8.43978C5.86041 7.88156 5.86051 6.97661 6.41872 6.41851Z" fill="var(--close-icon-color)"/>
</svg>
